<?xml version="1.0" encoding="UTF-8" standalone="no"?>
<!-- Created with Inkscape (http://www.inkscape.org/) -->

<svg
   width="512"
   height="512"
   viewBox="0 0 135.46666 135.46667"
   version="1.1"
   id="svg1"
   inkscape:version="1.3 (0e150ed6c4, 2023-07-21)"
   sodipodi:docname="fine fabrica.svg"
   xmlns:inkscape="http://www.inkscape.org/namespaces/inkscape"
   xmlns:sodipodi="http://sodipodi.sourceforge.net/DTD/sodipodi-0.dtd"
   xmlns="http://www.w3.org/2000/svg"
   xmlns:svg="http://www.w3.org/2000/svg">
  <sodipodi:namedview
     id="namedview1"
     pagecolor="#ffffff"
     bordercolor="#000000"
     borderopacity="0.25"
     inkscape:showpageshadow="2"
     inkscape:pageopacity="0.0"
     inkscape:pagecheckerboard="0"
     inkscape:deskcolor="#d1d1d1"
     inkscape:document-units="px"
     inkscape:zoom="1.5177937"
     inkscape:cx="248.38686"
     inkscape:cy="277.04688"
     inkscape:window-width="2560"
     inkscape:window-height="1334"
     inkscape:window-x="-11"
     inkscape:window-y="1609"
     inkscape:window-maximized="1"
     inkscape:current-layer="layer1" />
  <defs
     id="defs1" />
  <g
     inkscape:label="Layer"
     inkscape:groupmode="layer"
     id="layer1">
    <path
       id="path4"
       style="fill:#334195;stroke-width:1.69333;stroke-linejoin:round;fill-opacity:1"
       d="M 67.733332 0 A 67.73333 67.73333 0 0 0 0 67.733332 A 67.73333 67.73333 0 0 0 33.866666 126.21762 A 67.73333 67.73333 0 0 0 33.874934 126.22175 A 67.73333 67.73333 0 0 0 45.574479 131.57543 A 67.73333 67.73333 0 0 0 46.991446 132.10408 A 67.73333 67.73333 0 0 0 51.629923 133.37119 A 67.73333 67.73333 0 0 0 55.694274 134.25537 A 67.73333 67.73333 0 0 0 59.517813 134.8791 A 67.73333 67.73333 0 0 0 67.733332 135.46666 A 67.73333 67.73333 0 0 0 76.339009 134.8512 A 67.73333 67.73333 0 0 0 79.351228 134.34684 A 67.73333 67.73333 0 0 0 84.879056 133.14433 A 67.73333 67.73333 0 0 0 88.215803 132.20123 A 67.73333 67.73333 0 0 0 93.542093 130.21427 A 67.73333 67.73333 0 0 0 96.410651 129.05104 A 67.73333 67.73333 0 0 0 103.42314 125.22181 A 67.73333 67.73333 0 0 0 106.70976 122.95012 A 67.73333 67.73333 0 0 0 110.3421 120.2309 A 67.73333 67.73333 0 0 0 113.65766 117.35459 A 67.73333 67.73333 0 0 0 116.59908 114.41317 A 67.73333 67.73333 0 0 0 119.66039 111.10381 A 67.73333 67.73333 0 0 0 122.26902 107.61927 A 67.73333 67.73333 0 0 0 126.62018 100.86258 A 67.73333 67.73333 0 0 0 128.33273 97.725817 A 67.73333 67.73333 0 0 0 130.35535 93.163305 A 67.73333 67.73333 0 0 0 131.55424 89.950064 A 67.73333 67.73333 0 0 0 133.1004 85.081111 A 67.73333 67.73333 0 0 0 133.23218 84.666666 L 133.19083 84.666666 A 67.73333 67.73333 0 0 0 135.46666 67.733332 A 67.73333 67.73333 0 0 0 67.733332 0 z M 67.733332 16.933333 A 50.799999 50.799999 0 0 1 118.53333 67.733332 A 50.799999 50.799999 0 0 1 115.53558 84.666666 L 101.6 84.666666 L 101.6 67.733332 A 33.866665 33.866665 0 0 0 67.733332 33.866666 A 33.866665 33.866665 0 0 0 33.866666 67.733332 L 67.733332 67.733332 L 67.733332 84.666666 L 33.866666 84.666666 L 33.866666 105.40855 A 50.799999 50.799999 0 0 1 16.933333 67.733332 A 50.799999 50.799999 0 0 1 67.733332 16.933333 z "
       inkscape:label="Logo" />
  </g>
</svg>
